<svg width="38" height="50" viewBox="0 0 38 50" fill="none" xmlns="http://www.w3.org/2000/svg">
<path fill-rule="evenodd" clip-rule="evenodd" d="M23.5361 2.99681C22.2553 1.58941 20.0727 1.48671 18.6653 2.76751L2.99765 17.0265C1.59025 18.3074 1.48755 20.49 2.76845 21.8974L14.9273 35.2575C16.2082 36.6649 18.3907 36.7677 19.7981 35.4868L35.4658 21.2278C36.8732 19.9469 36.976 17.7644 35.6951 16.3569L23.5361 2.99681Z" stroke="#4B4B4B" stroke-width="2" stroke-linecap="round" stroke-linejoin="round"/>
<path d="M2.89935 24.371C1.54515 25.6033 1.44645 27.7002 2.67885 29.0543L14.3698 41.9002C15.6022 43.2544 17.699 43.3531 19.0531 42.1207L34.1178 28.4105C35.4719 27.1781 35.5706 25.0813 34.3382 23.7271" stroke="#4B4B4B" stroke-width="2" stroke-linecap="round" stroke-linejoin="round"/>
<path d="M2.86098 30.621C1.52788 31.8342 1.43068 33.8984 2.64398 35.2315L14.1533 47.8779C15.3666 49.211 17.4308 49.3082 18.7639 48.0949L33.5945 34.5977C34.9276 33.3845 35.0248 31.3202 33.8115 29.9871" stroke="#4B4B4B" stroke-width="2" stroke-linecap="round" stroke-linejoin="round"/>
<path d="M8.59277 18.9448L20.5928 7.94482" stroke="#4B4B4B" stroke-width="2" stroke-linecap="round" stroke-linejoin="round"/>
</svg>
